# xmcd
#
# Track frame offsets:
#	150
#	11415
#	24722
#	36710
#	51930
#	62422
#	85255
#	99655
#	117945
#	130607
#
# Disc length: 1937 seconds
#
# Revision: 1
# Processed by: cddbd v1.5.1PL2 Copyright (c) Steve Scherf et al.
# Submitted via: audiograbber 1.83.01
#
DISCID=80078f0a
DTITLE=Dani Daraiche - Mets tes jeans, tes bottes et ton chapeau
DYEAR=1900
DGENRE=
TTITLE0=Je n'aurais jamais dû
TTITLE1=Tu sais parfois
TTITLE2=Tu n'as pas de coeur
TTITLE3=Jai tant besoin
TTITLE4=Danser le rock-and-roll
TTITLE5=Mets tes jeans, tes bottes et ton chapeau
TTITLE6=Mes chers parents
TTITLE7=La chanson du petit voilier
TTITLE8=Tu es le soleil de mes nuits
TTITLE9=Chez moi
EXTD=
EXTT0=
EXTT1=
EXTT2=
EXTT3=
EXTT4=
EXTT5=
EXTT6=
EXTT7=
EXTT8=
EXTT9=
PLAYORDER=
